# xmcd
#
# Track frame offsets:
#	150
#	15030
#	32055
#	48365
#	64512
#	80075
#	95147
#	110082
#	127120
#	143235
#	159237
#	175485
#	191695
#	205637
#	219062
#	237162
#	254557
#	270565
#	286357
#	302260
#
# Disc length: 4248 seconds
#
# Revision: 0
# Processed by: cddbd v1.5.1PL2 Copyright (c) Steve Scherf et al.
# Submitted via: dBpowerAMP V4.0
#
DISCID=15109614
DTITLE=CAVIAR COM RAPADURA - 20 S SUCESSOS
DYEAR=2005
DGENRE=FORRO
TTITLE0=HISTORIA DE CORRINHA
TTITLE1=ADESIVO DE AMOR
TTITLE2=VIVER POR VOCE
TTITLE3=ISSO E AMOR
TTITLE4=BALANÇANDO O ESQUELETO
TTITLE5=AMORE MIO
TTITLE6=DONT GO
TTITLE7=VIVENDO ESSA PAIXAO
TTITLE8=PARECE MAGICA
TTITLE9=BRINQUEDO QUALQUER
TTITLE10=MEDO DE PERDER
TTITLE11=LOUCURAS DE AMOR
TTITLE12=AMANHECER NO SERTAO
TTITLE13=PENSE
TTITLE14=NOSSO AMOR E ASSIM
TTITLE15=O AMOR ESTA AQUI
TTITLE16=ENTRE ELE E EU
TTITLE17=MEDIDA DE AMOR
TTITLE18=MEXE MEXE
TTITLE19=FOGO CRUZADO
EXTD=
EXTT0=
EXTT1=
EXTT2=
EXTT3=
EXTT4=
EXTT5=
EXTT6=
EXTT7=
EXTT8=
EXTT9=
EXTT10=
EXTT11=
EXTT12=
EXTT13=
EXTT14=
EXTT15=
EXTT16=
EXTT17=
EXTT18=
EXTT19=
PLAYORDER=
